<svg width="318" height="40" viewBox="0 0 318 40" fill="none" xmlns="http://www.w3.org/2000/svg">
<rect width="318" height="40" rx="4" fill="#711BFF"/>
<rect width="318" height="40" rx="4" fill="#711BFF"/>
<path d="M186.869 24.632V25.652H177.053V24.632H181.325V22.784H178.241V19.292H184.481V17.84H178.217V16.844H185.705V20.276H179.453V21.788H185.945V22.784H182.561V24.632H186.869ZM195.4 18.164H189.136V17.168H196.636V18.332C196.636 19.784 196.648 21.296 196.228 23.6L194.98 23.468C195.4 21.332 195.4 19.748 195.4 18.332V18.164ZM197.896 24.392V25.412H188.092V24.392H197.896ZM208.06 23.96H206.824V16.088H208.06V23.96ZM205.084 19.52C205.084 21.092 203.848 22.232 202.216 22.232C200.584 22.232 199.336 21.092 199.336 19.52C199.336 17.924 200.584 16.808 202.216 16.808C203.848 16.808 205.084 17.924 205.084 19.52ZM200.548 19.52C200.548 20.504 201.256 21.164 202.216 21.164C203.164 21.164 203.884 20.504 203.884 19.52C203.884 18.512 203.164 17.876 202.216 17.876C201.256 17.876 200.548 18.512 200.548 19.52ZM208.372 25.712V26.72H200.98V23.168H202.228V25.712H208.372Z" fill="white"/>
<path d="M123.55 17.3505V22.1982C123.545 23.046 123.191 23.8579 122.564 24.4575C121.937 25.057 121.088 25.3957 120.201 25.4C119.156 25.4 118.301 25.0176 117.636 24.2528C116.963 25.0181 116.104 25.4005 115.059 25.4C114.172 25.3957 113.323 25.057 112.696 24.4575C112.069 23.8579 111.714 23.046 111.71 22.1982V17.3505H113.277V22.1982C113.278 22.6496 113.466 23.0822 113.8 23.4014C114.134 23.7205 114.586 23.9002 115.059 23.9011C115.292 23.9049 115.524 23.8636 115.74 23.7798C115.956 23.6959 116.153 23.5713 116.317 23.4132C116.486 23.2569 116.62 23.0699 116.712 22.8632C116.804 22.6565 116.851 22.4343 116.852 22.2098V17.3505H118.42V22.2098C118.416 22.4338 118.461 22.6562 118.551 22.8632C118.641 23.0702 118.774 23.2574 118.942 23.4132C119.107 23.5713 119.303 23.6959 119.52 23.7798C119.736 23.8636 119.968 23.9049 120.201 23.9011C120.673 23.9006 121.126 23.721 121.46 23.4018C121.794 23.0825 121.982 22.6497 121.982 22.1982V17.3505H123.55Z" fill="white"/>
<path d="M129.447 22.1264C129.615 22.6328 129.943 23.077 130.386 23.3983C130.84 23.727 131.395 23.9026 131.965 23.8977C132.45 23.8938 132.928 23.7893 133.366 23.5914C133.858 23.3791 134.218 23.1103 134.447 22.7851L135.741 23.6253C135.367 24.1552 134.826 24.5828 134.117 24.9081C133.448 25.2254 132.713 25.3925 131.967 25.3966C131.412 25.4049 130.861 25.3044 130.349 25.1012C129.836 24.8981 129.372 24.5966 128.986 24.2155C128.163 23.429 127.751 22.4831 127.752 21.3776C127.752 20.3097 128.197 19.2858 128.987 18.5308C129.777 17.7757 130.848 17.3512 131.965 17.3505C133.121 17.3505 134.111 17.744 134.934 18.5309C135.333 18.8995 135.648 19.3423 135.861 19.8318C136.074 20.3214 136.18 20.8475 136.172 21.3776C136.173 21.6252 136.149 21.8722 136.101 22.1156L129.447 22.1264ZM131.965 18.846C131.395 18.8408 130.84 19.0164 130.386 19.3454C129.941 19.6692 129.613 20.1176 129.447 20.6282H134.471C134.306 20.1177 133.978 19.6692 133.533 19.3454C133.083 19.0174 132.531 18.8418 131.965 18.846Z" fill="white"/>
<path d="M140.262 25.3966V21.3776C140.253 20.8471 140.358 20.3205 140.57 19.8303C140.783 19.3401 141.098 18.8968 141.496 18.5275C142.32 17.7428 143.31 17.3505 144.466 17.3505C145.584 17.3505 146.656 17.7751 147.447 18.531C148.237 19.2869 148.682 20.3121 148.682 21.381V25.4H147.114V21.3776C147.114 20.7076 146.835 20.0651 146.34 19.5913C145.844 19.1176 145.172 18.8514 144.471 18.8514C143.77 18.8514 143.098 19.1176 142.603 19.5913C142.107 20.0651 141.829 20.7076 141.829 21.3776V25.3966H140.262Z" fill="white"/>
<path d="M152.774 14.6H154.341V16.0528H152.774V14.6ZM152.774 17.3471H154.341V25.3966H152.774V17.3471Z" fill="white"/>
<path d="M168.29 17.3505L164.727 24.6472C164.491 25.1464 164.083 25.3962 163.504 25.3966C162.925 25.3971 162.513 25.1473 162.269 24.6472L158.707 17.3505H160.44L163.303 23.2086C163.32 23.2457 163.348 23.2772 163.384 23.2993C163.42 23.3214 163.462 23.3332 163.504 23.3332C163.547 23.3332 163.589 23.3214 163.624 23.2993C163.66 23.2772 163.688 23.2457 163.706 23.2086L166.568 17.3505H168.29Z" fill="white"/>
</svg>
